<?xml version="1.0" encoding="UTF-8"?>
<svg xmlns="http://www.w3.org/2000/svg" xmlns:xlink="http://www.w3.org/1999/xlink" width="288pt" height="288pt" viewBox="0 0 288 288" version="1.1">
<g id="surface1">
<rect x="0" y="0" width="288" height="288" style="fill:rgb(100%,100%,100%);fill-opacity:1;stroke:none;"/>
<path style="fill:none;stroke-width:5.25;stroke-linecap:round;stroke-linejoin:round;stroke:rgb(0%,0%,0%);stroke-opacity:1;stroke-miterlimit:10;" d="M 214.613281 91 L 196.523438 182.601562 "/>
<path style="fill:none;stroke-width:5.25;stroke-linecap:round;stroke-linejoin:round;stroke:rgb(0%,0%,0%);stroke-opacity:1;stroke-miterlimit:10;" d="M 204.640625 82.238281 L 112.160156 113.335938 "/>
<path style="fill:none;stroke-width:5.25;stroke-linecap:round;stroke-linejoin:round;stroke:rgb(0%,0%,0%);stroke-opacity:1;stroke-miterlimit:10;" d="M 183.769531 187.148438 L 109.816406 125.976562 "/>
<path style="fill-rule:nonzero;fill:rgb(0%,0%,0%);fill-opacity:1;stroke-width:0.75;stroke-linecap:round;stroke-linejoin:round;stroke:rgb(0%,0%,0%);stroke-opacity:1;stroke-miterlimit:10;" d="M 230.398438 78.023438 C 230.398438 85.328125 224.480469 91.25 217.175781 91.25 C 209.871094 91.25 203.949219 85.328125 203.949219 78.023438 C 203.949219 70.722656 209.871094 64.800781 217.175781 64.800781 C 224.480469 64.800781 230.398438 70.722656 230.398438 78.023438 "/>
<path style="fill-rule:nonzero;fill:rgb(0%,0%,0%);fill-opacity:1;stroke-width:0.75;stroke-linecap:round;stroke-linejoin:round;stroke:rgb(0%,0%,0%);stroke-opacity:1;stroke-miterlimit:10;" d="M 207.183594 195.574219 C 207.183594 202.878906 201.261719 208.800781 193.960938 208.800781 C 186.65625 208.800781 180.734375 202.878906 180.734375 195.574219 C 180.734375 188.273438 186.65625 182.351562 193.960938 182.351562 C 201.261719 182.351562 207.183594 188.273438 207.183594 195.574219 "/>
<path style="fill-rule:nonzero;fill:rgb(0%,0%,0%);fill-opacity:1;stroke-width:0.75;stroke-linecap:round;stroke-linejoin:round;stroke:rgb(0%,0%,0%);stroke-opacity:1;stroke-miterlimit:10;" d="M 112.847656 117.550781 C 112.847656 124.851562 106.929688 130.773438 99.625 130.773438 C 92.320312 130.773438 86.398438 124.851562 86.398438 117.550781 C 86.398438 110.246094 92.320312 104.324219 99.625 104.324219 C 106.929688 104.324219 112.847656 110.246094 112.847656 117.550781 "/>
</g>
</svg>
