<?xml version="1.0" encoding="UTF-8"?>
<svg xmlns="http://www.w3.org/2000/svg" xmlns:xlink="http://www.w3.org/1999/xlink" width="288pt" height="288pt" viewBox="0 0 288 288" version="1.1">
<g id="surface1">
<rect x="0" y="0" width="288" height="288" style="fill:rgb(100%,100%,100%);fill-opacity:1;stroke:none;"/>
<path style="fill:none;stroke-width:5.25;stroke-linecap:round;stroke-linejoin:round;stroke:rgb(0%,0%,0%);stroke-opacity:1;stroke-miterlimit:10;" d="M 208.503906 130.746094 L 171.394531 88.007812 "/>
<path style="fill:none;stroke-width:5.25;stroke-linecap:round;stroke-linejoin:round;stroke:rgb(0%,0%,0%);stroke-opacity:1;stroke-miterlimit:10;" d="M 207.199219 149.410156 L 164.105469 186.894531 "/>
<path style="fill:none;stroke-width:5.25;stroke-linecap:round;stroke-linejoin:round;stroke:rgb(0%,0%,0%);stroke-opacity:1;stroke-miterlimit:10;" d="M 152.6875 86.636719 L 109.660156 123.550781 "/>
<path style="fill:none;stroke-width:5.25;stroke-linecap:round;stroke-linejoin:round;stroke:rgb(0%,0%,0%);stroke-opacity:1;stroke-miterlimit:10;" d="M 145.507812 185.546875 L 108.246094 142.191406 "/>
<path style="fill-rule:nonzero;fill:rgb(0%,0%,0%);fill-opacity:1;stroke-width:0.75;stroke-linecap:round;stroke-linejoin:round;stroke:rgb(0%,0%,0%);stroke-opacity:1;stroke-miterlimit:10;" d="M 230.398438 140.730469 C 230.398438 148.035156 224.480469 153.953125 217.175781 153.953125 C 209.871094 153.953125 203.949219 148.035156 203.949219 140.730469 C 203.949219 133.425781 209.871094 127.503906 217.175781 127.503906 C 224.480469 127.503906 230.398438 133.425781 230.398438 140.730469 "/>
<path style="fill-rule:nonzero;fill:rgb(0%,0%,0%);fill-opacity:1;stroke-width:0.75;stroke-linecap:round;stroke-linejoin:round;stroke:rgb(0%,0%,0%);stroke-opacity:1;stroke-miterlimit:10;" d="M 175.949219 78.023438 C 175.949219 85.328125 170.027344 91.25 162.722656 91.25 C 155.421875 91.25 149.5 85.328125 149.5 78.023438 C 149.5 70.722656 155.421875 64.800781 162.722656 64.800781 C 170.027344 64.800781 175.949219 70.722656 175.949219 78.023438 "/>
<path style="fill-rule:nonzero;fill:rgb(0%,0%,0%);fill-opacity:1;stroke-width:0.75;stroke-linecap:round;stroke-linejoin:round;stroke:rgb(0%,0%,0%);stroke-opacity:1;stroke-miterlimit:10;" d="M 167.351562 195.574219 C 167.351562 202.878906 161.433594 208.800781 154.128906 208.800781 C 146.824219 208.800781 140.902344 202.878906 140.902344 195.574219 C 140.902344 188.273438 146.824219 182.351562 154.128906 182.351562 C 161.433594 182.351562 167.351562 188.273438 167.351562 195.574219 "/>
<path style="fill-rule:nonzero;fill:rgb(0%,0%,0%);fill-opacity:1;stroke-width:0.75;stroke-linecap:round;stroke-linejoin:round;stroke:rgb(0%,0%,0%);stroke-opacity:1;stroke-miterlimit:10;" d="M 112.847656 132.160156 C 112.847656 139.464844 106.929688 145.386719 99.625 145.386719 C 92.320312 145.386719 86.398438 139.464844 86.398438 132.160156 C 86.398438 124.855469 92.320312 118.9375 99.625 118.9375 C 106.929688 118.9375 112.847656 124.855469 112.847656 132.160156 "/>
</g>
</svg>
