<?xml version="1.0" encoding="UTF-8"?>
<svg xmlns="http://www.w3.org/2000/svg" xmlns:xlink="http://www.w3.org/1999/xlink" width="288pt" height="288pt" viewBox="0 0 288 288" version="1.1">
<g id="surface1">
<rect x="0" y="0" width="288" height="288" style="fill:rgb(100%,100%,100%);fill-opacity:1;stroke:none;"/>
<path style="fill:none;stroke-width:5.25;stroke-linecap:round;stroke-linejoin:round;stroke:rgb(0%,0%,0%);stroke-opacity:1;stroke-miterlimit:10;" d="M 148.855469 87.441406 L 108.910156 127.945312 "/>
<path style="fill:none;stroke-width:5.25;stroke-linecap:round;stroke-linejoin:round;stroke:rgb(0%,0%,0%);stroke-opacity:1;stroke-miterlimit:10;" d="M 167.546875 87.320312 L 207.769531 127.082031 "/>
<path style="fill:none;stroke-width:5.25;stroke-linecap:round;stroke-linejoin:round;stroke:rgb(0%,0%,0%);stroke-opacity:1;stroke-miterlimit:10;" d="M 158.167969 91.25 L 158.347656 182.351562 "/>
<path style="fill:none;stroke-width:5.25;stroke-linecap:round;stroke-linejoin:round;stroke:rgb(0%,0%,0%);stroke-opacity:1;stroke-miterlimit:10;" d="M 109.019531 146.671875 L 148.980469 186.265625 "/>
<path style="fill:none;stroke-width:5.25;stroke-linecap:round;stroke-linejoin:round;stroke:rgb(0%,0%,0%);stroke-opacity:1;stroke-miterlimit:10;" d="M 207.855469 145.761719 L 167.691406 186.191406 "/>
<path style="fill-rule:nonzero;fill:rgb(0%,0%,0%);fill-opacity:1;stroke-width:0.75;stroke-linecap:round;stroke-linejoin:round;stroke:rgb(0%,0%,0%);stroke-opacity:1;stroke-miterlimit:10;" d="M 171.363281 78.023438 C 171.363281 85.328125 165.445312 91.25 158.140625 91.25 C 150.835938 91.25 144.914062 85.328125 144.914062 78.023438 C 144.914062 70.722656 150.835938 64.800781 158.140625 64.800781 C 165.445312 64.800781 171.363281 70.722656 171.363281 78.023438 "/>
<path style="fill-rule:nonzero;fill:rgb(0%,0%,0%);fill-opacity:1;stroke-width:0.75;stroke-linecap:round;stroke-linejoin:round;stroke:rgb(0%,0%,0%);stroke-opacity:1;stroke-miterlimit:10;" d="M 112.847656 137.363281 C 112.847656 144.667969 106.929688 150.585938 99.625 150.585938 C 92.320312 150.585938 86.398438 144.667969 86.398438 137.363281 C 86.398438 130.058594 92.320312 124.140625 99.625 124.140625 C 106.929688 124.140625 112.847656 130.058594 112.847656 137.363281 "/>
<path style="fill-rule:nonzero;fill:rgb(0%,0%,0%);fill-opacity:1;stroke-width:0.75;stroke-linecap:round;stroke-linejoin:round;stroke:rgb(0%,0%,0%);stroke-opacity:1;stroke-miterlimit:10;" d="M 230.398438 136.378906 C 230.398438 143.683594 224.480469 149.605469 217.175781 149.605469 C 209.871094 149.605469 203.949219 143.683594 203.949219 136.378906 C 203.949219 129.074219 209.871094 123.15625 217.175781 123.15625 C 224.480469 123.15625 230.398438 129.074219 230.398438 136.378906 "/>
<path style="fill-rule:nonzero;fill:rgb(0%,0%,0%);fill-opacity:1;stroke-width:0.75;stroke-linecap:round;stroke-linejoin:round;stroke:rgb(0%,0%,0%);stroke-opacity:1;stroke-miterlimit:10;" d="M 171.597656 195.574219 C 171.597656 202.878906 165.675781 208.800781 158.371094 208.800781 C 151.070312 208.800781 145.148438 202.878906 145.148438 195.574219 C 145.148438 188.273438 151.070312 182.351562 158.371094 182.351562 C 165.675781 182.351562 171.597656 188.273438 171.597656 195.574219 "/>
</g>
</svg>
