<?xml version="1.0" encoding="UTF-8"?>
<svg xmlns="http://www.w3.org/2000/svg" xmlns:xlink="http://www.w3.org/1999/xlink" width="288pt" height="288pt" viewBox="0 0 288 288" version="1.1">
<g id="surface1">
<rect x="0" y="0" width="288" height="288" style="fill:rgb(100%,100%,100%);fill-opacity:1;stroke:none;"/>
<path style="fill:none;stroke-width:5.25;stroke-linecap:round;stroke-linejoin:round;stroke:rgb(0%,0%,0%);stroke-opacity:1;stroke-miterlimit:10;" d="M 207.878906 87.429688 L 192.308594 103.191406 "/>
<path style="fill:none;stroke-width:5.25;stroke-linecap:round;stroke-linejoin:round;stroke:rgb(0%,0%,0%);stroke-opacity:1;stroke-miterlimit:10;" d="M 173.722656 122.007812 L 152.113281 143.882812 "/>
<path style="fill:none;stroke-width:5.25;stroke-linecap:round;stroke-linejoin:round;stroke:rgb(0%,0%,0%);stroke-opacity:1;stroke-miterlimit:10;" d="M 130.648438 158.453125 L 111.800781 166.449219 "/>
<path style="fill:none;stroke-width:5.25;stroke-linecap:round;stroke-linejoin:round;stroke:rgb(0%,0%,0%);stroke-opacity:1;stroke-miterlimit:10;" d="M 138 165.605469 L 131.089844 183.261719 "/>
<path style="fill:none;stroke-width:5.25;stroke-linecap:round;stroke-linejoin:round;stroke:rgb(0%,0%,0%);stroke-opacity:1;stroke-miterlimit:10;" d="M 109.457031 180.453125 L 116.4375 186.730469 "/>
<path style="fill-rule:nonzero;fill:rgb(0%,0%,0%);fill-opacity:1;stroke-width:0.75;stroke-linecap:round;stroke-linejoin:round;stroke:rgb(0%,0%,0%);stroke-opacity:1;stroke-miterlimit:10;" d="M 230.398438 78.023438 C 230.398438 85.328125 224.480469 91.25 217.175781 91.25 C 209.871094 91.25 203.949219 85.328125 203.949219 78.023438 C 203.949219 70.722656 209.871094 64.800781 217.175781 64.800781 C 224.480469 64.800781 230.398438 70.722656 230.398438 78.023438 "/>
<path style="fill-rule:nonzero;fill:rgb(0%,0%,0%);fill-opacity:1;stroke-width:0.75;stroke-linecap:round;stroke-linejoin:round;stroke:rgb(0%,0%,0%);stroke-opacity:1;stroke-miterlimit:10;" d="M 196.238281 112.597656 C 196.238281 119.902344 190.316406 125.824219 183.015625 125.824219 C 175.710938 125.824219 169.789062 119.902344 169.789062 112.597656 C 169.789062 105.292969 175.710938 99.375 183.015625 99.375 C 190.316406 99.375 196.238281 105.292969 196.238281 112.597656 "/>
<path style="fill-rule:nonzero;fill:rgb(0%,0%,0%);fill-opacity:1;stroke-width:0.75;stroke-linecap:round;stroke-linejoin:round;stroke:rgb(0%,0%,0%);stroke-opacity:1;stroke-miterlimit:10;" d="M 156.046875 153.289062 C 156.046875 160.59375 150.125 166.515625 142.820312 166.515625 C 135.519531 166.515625 129.597656 160.59375 129.597656 153.289062 C 129.597656 145.988281 135.519531 140.066406 142.820312 140.066406 C 150.125 140.066406 156.046875 145.988281 156.046875 153.289062 "/>
<path style="fill-rule:nonzero;fill:rgb(0%,0%,0%);fill-opacity:1;stroke-width:0.75;stroke-linecap:round;stroke-linejoin:round;stroke:rgb(0%,0%,0%);stroke-opacity:1;stroke-miterlimit:10;" d="M 112.847656 171.609375 C 112.847656 178.914062 106.929688 184.835938 99.625 184.835938 C 92.320312 184.835938 86.398438 178.914062 86.398438 171.609375 C 86.398438 164.308594 92.320312 158.386719 99.625 158.386719 C 106.929688 158.386719 112.847656 164.308594 112.847656 171.609375 "/>
<path style="fill-rule:nonzero;fill:rgb(0%,0%,0%);fill-opacity:1;stroke-width:0.75;stroke-linecap:round;stroke-linejoin:round;stroke:rgb(0%,0%,0%);stroke-opacity:1;stroke-miterlimit:10;" d="M 139.492188 195.574219 C 139.492188 202.878906 133.574219 208.800781 126.269531 208.800781 C 118.964844 208.800781 113.042969 202.878906 113.042969 195.574219 C 113.042969 188.273438 118.964844 182.351562 126.269531 182.351562 C 133.574219 182.351562 139.492188 188.273438 139.492188 195.574219 "/>
</g>
</svg>
