<?xml version="1.0" encoding="UTF-8"?>
<svg xmlns="http://www.w3.org/2000/svg" xmlns:xlink="http://www.w3.org/1999/xlink" width="288pt" height="288pt" viewBox="0 0 288 288" version="1.1">
<g id="surface1">
<rect x="0" y="0" width="288" height="288" style="fill:rgb(100%,100%,100%);fill-opacity:1;stroke:none;"/>
<path style="fill:none;stroke-width:5.25;stroke-linecap:round;stroke-linejoin:round;stroke:rgb(0%,0%,0%);stroke-opacity:1;stroke-miterlimit:10;" d="M 201.3125 183.675781 L 181.390625 142.578125 "/>
<path style="fill:none;stroke-width:5.25;stroke-linecap:round;stroke-linejoin:round;stroke:rgb(0%,0%,0%);stroke-opacity:1;stroke-miterlimit:10;" d="M 162.753906 127.640625 L 112.496094 115.78125 "/>
<path style="fill:none;stroke-width:5.25;stroke-linecap:round;stroke-linejoin:round;stroke:rgb(0%,0%,0%);stroke-opacity:1;stroke-miterlimit:10;" d="M 183.816406 120.296875 L 208.984375 88.40625 "/>
<path style="fill:none;stroke-width:5.25;stroke-linecap:round;stroke-linejoin:round;stroke:rgb(0%,0%,0%);stroke-opacity:1;stroke-miterlimit:10;" d="M 169.851562 118.78125 L 156.101562 90.445312 "/>
<path style="fill:none;stroke-width:5.25;stroke-linecap:round;stroke-linejoin:round;stroke:rgb(0%,0%,0%);stroke-opacity:1;stroke-miterlimit:10;" d="M 110.589844 105.351562 L 139.363281 85.941406 "/>
<path style="fill:none;stroke-width:5.25;stroke-linecap:round;stroke-linejoin:round;stroke:rgb(0%,0%,0%);stroke-opacity:1;stroke-miterlimit:10;" d="M 203.953125 78.128906 L 163.550781 78.445312 "/>
<path style="fill-rule:nonzero;fill:rgb(0%,0%,0%);fill-opacity:1;stroke-width:0.75;stroke-linecap:round;stroke-linejoin:round;stroke:rgb(0%,0%,0%);stroke-opacity:1;stroke-miterlimit:10;" d="M 220.304688 195.574219 C 220.304688 202.878906 214.382812 208.800781 207.082031 208.800781 C 199.777344 208.800781 193.855469 202.878906 193.855469 195.574219 C 193.855469 188.273438 199.777344 182.351562 207.082031 182.351562 C 214.382812 182.351562 220.304688 188.273438 220.304688 195.574219 "/>
<path style="fill-rule:nonzero;fill:rgb(0%,0%,0%);fill-opacity:1;stroke-width:0.75;stroke-linecap:round;stroke-linejoin:round;stroke:rgb(0%,0%,0%);stroke-opacity:1;stroke-miterlimit:10;" d="M 188.847656 130.675781 C 188.847656 137.980469 182.929688 143.902344 175.625 143.902344 C 168.320312 143.902344 162.398438 137.980469 162.398438 130.675781 C 162.398438 123.375 168.320312 117.453125 175.625 117.453125 C 182.929688 117.453125 188.847656 123.375 188.847656 130.675781 "/>
<path style="fill-rule:nonzero;fill:rgb(0%,0%,0%);fill-opacity:1;stroke-width:0.75;stroke-linecap:round;stroke-linejoin:round;stroke:rgb(0%,0%,0%);stroke-opacity:1;stroke-miterlimit:10;" d="M 112.847656 112.746094 C 112.847656 120.046875 106.929688 125.96875 99.625 125.96875 C 92.320312 125.96875 86.398438 120.046875 86.398438 112.746094 C 86.398438 105.441406 92.320312 99.519531 99.625 99.519531 C 106.929688 99.519531 112.847656 105.441406 112.847656 112.746094 "/>
<path style="fill-rule:nonzero;fill:rgb(0%,0%,0%);fill-opacity:1;stroke-width:0.75;stroke-linecap:round;stroke-linejoin:round;stroke:rgb(0%,0%,0%);stroke-opacity:1;stroke-miterlimit:10;" d="M 230.398438 78.023438 C 230.398438 85.328125 224.480469 91.25 217.175781 91.25 C 209.871094 91.25 203.949219 85.328125 203.949219 78.023438 C 203.949219 70.722656 209.871094 64.800781 217.175781 64.800781 C 224.480469 64.800781 230.398438 70.722656 230.398438 78.023438 "/>
<path style="fill-rule:nonzero;fill:rgb(0%,0%,0%);fill-opacity:1;stroke-width:0.75;stroke-linecap:round;stroke-linejoin:round;stroke:rgb(0%,0%,0%);stroke-opacity:1;stroke-miterlimit:10;" d="M 163.550781 78.546875 C 163.550781 85.851562 157.632812 91.773438 150.328125 91.773438 C 143.023438 91.773438 137.105469 85.851562 137.105469 78.546875 C 137.105469 71.246094 143.023438 65.324219 150.328125 65.324219 C 157.632812 65.324219 163.550781 71.246094 163.550781 78.546875 "/>
</g>
</svg>
