<?xml version="1.0" encoding="UTF-8"?>
<svg xmlns="http://www.w3.org/2000/svg" xmlns:xlink="http://www.w3.org/1999/xlink" width="288pt" height="288pt" viewBox="0 0 288 288" version="1.1">
<g id="surface1">
<rect x="0" y="0" width="288" height="288" style="fill:rgb(100%,100%,100%);fill-opacity:1;stroke:none;"/>
<path style="fill:none;stroke-width:5.25;stroke-linecap:round;stroke-linejoin:round;stroke:rgb(0%,0%,0%);stroke-opacity:1;stroke-miterlimit:10;" d="M 208.621094 185.488281 L 185.828125 158.605469 "/>
<path style="fill:none;stroke-width:5.25;stroke-linecap:round;stroke-linejoin:round;stroke:rgb(0%,0%,0%);stroke-opacity:1;stroke-miterlimit:10;" d="M 180.78125 135.769531 L 187.484375 111.394531 "/>
<path style="fill:none;stroke-width:5.25;stroke-linecap:round;stroke-linejoin:round;stroke:rgb(0%,0%,0%);stroke-opacity:1;stroke-miterlimit:10;" d="M 164.757812 144.246094 L 112.140625 126.273438 "/>
<path style="fill:none;stroke-width:5.25;stroke-linecap:round;stroke-linejoin:round;stroke:rgb(0%,0%,0%);stroke-opacity:1;stroke-miterlimit:10;" d="M 178.269531 95.03125 L 131.03125 81.632812 "/>
<path style="fill:none;stroke-width:5.25;stroke-linecap:round;stroke-linejoin:round;stroke:rgb(0%,0%,0%);stroke-opacity:1;stroke-miterlimit:10;" d="M 104.796875 109.828125 L 113.136719 90.195312 "/>
<path style="fill-rule:nonzero;fill:rgb(0%,0%,0%);fill-opacity:1;stroke-width:0.75;stroke-linecap:round;stroke-linejoin:round;stroke:rgb(0%,0%,0%);stroke-opacity:1;stroke-miterlimit:10;" d="M 230.398438 195.574219 C 230.398438 202.878906 224.480469 208.800781 217.175781 208.800781 C 209.871094 208.800781 203.949219 202.878906 203.949219 195.574219 C 203.949219 188.273438 209.871094 182.351562 217.175781 182.351562 C 224.480469 182.351562 230.398438 188.273438 230.398438 195.574219 "/>
<path style="fill-rule:nonzero;fill:rgb(0%,0%,0%);fill-opacity:1;stroke-width:0.75;stroke-linecap:round;stroke-linejoin:round;stroke:rgb(0%,0%,0%);stroke-opacity:1;stroke-miterlimit:10;" d="M 190.5 148.519531 C 190.5 155.824219 184.578125 161.746094 177.273438 161.746094 C 169.96875 161.746094 164.050781 155.824219 164.050781 148.519531 C 164.050781 141.214844 169.96875 135.296875 177.273438 135.296875 C 184.578125 135.296875 190.5 141.214844 190.5 148.519531 "/>
<path style="fill-rule:nonzero;fill:rgb(0%,0%,0%);fill-opacity:1;stroke-width:0.75;stroke-linecap:round;stroke-linejoin:round;stroke:rgb(0%,0%,0%);stroke-opacity:1;stroke-miterlimit:10;" d="M 204.21875 98.640625 C 204.21875 105.945312 198.296875 111.867188 190.992188 111.867188 C 183.6875 111.867188 177.769531 105.945312 177.769531 98.640625 C 177.769531 91.339844 183.6875 85.417969 190.992188 85.417969 C 198.296875 85.417969 204.21875 91.339844 204.21875 98.640625 "/>
<path style="fill-rule:nonzero;fill:rgb(0%,0%,0%);fill-opacity:1;stroke-width:0.75;stroke-linecap:round;stroke-linejoin:round;stroke:rgb(0%,0%,0%);stroke-opacity:1;stroke-miterlimit:10;" d="M 112.847656 122 C 112.847656 129.304688 106.929688 135.222656 99.625 135.222656 C 92.320312 135.222656 86.398438 129.304688 86.398438 122 C 86.398438 114.695312 92.320312 108.773438 99.625 108.773438 C 106.929688 108.773438 112.847656 114.695312 112.847656 122 "/>
<path style="fill-rule:nonzero;fill:rgb(0%,0%,0%);fill-opacity:1;stroke-width:0.75;stroke-linecap:round;stroke-linejoin:round;stroke:rgb(0%,0%,0%);stroke-opacity:1;stroke-miterlimit:10;" d="M 131.53125 78.023438 C 131.53125 85.328125 125.613281 91.25 118.308594 91.25 C 111.003906 91.25 105.085938 85.328125 105.085938 78.023438 C 105.085938 70.722656 111.003906 64.800781 118.308594 64.800781 C 125.613281 64.800781 131.53125 70.722656 131.53125 78.023438 "/>
</g>
</svg>
