<?xml version="1.0" encoding="UTF-8"?>
<svg xmlns="http://www.w3.org/2000/svg" xmlns:xlink="http://www.w3.org/1999/xlink" width="288pt" height="288pt" viewBox="0 0 288 288" version="1.1">
<g id="surface1">
<rect x="0" y="0" width="288" height="288" style="fill:rgb(100%,100%,100%);fill-opacity:1;stroke:none;"/>
<path style="fill:none;stroke-width:5.25;stroke-linecap:round;stroke-linejoin:round;stroke:rgb(0%,0%,0%);stroke-opacity:1;stroke-miterlimit:10;" d="M 203.964844 143.648438 L 167.019531 142.0625 "/>
<path style="fill:none;stroke-width:5.25;stroke-linecap:round;stroke-linejoin:round;stroke:rgb(0%,0%,0%);stroke-opacity:1;stroke-miterlimit:10;" d="M 153.417969 128.277344 L 152.328125 91.242188 "/>
<path style="fill:none;stroke-width:5.25;stroke-linecap:round;stroke-linejoin:round;stroke:rgb(0%,0%,0%);stroke-opacity:1;stroke-miterlimit:10;" d="M 148.472656 153.597656 L 135.304688 183.472656 "/>
<path style="fill:none;stroke-width:5.25;stroke-linecap:round;stroke-linejoin:round;stroke:rgb(0%,0%,0%);stroke-opacity:1;stroke-miterlimit:10;" d="M 141.648438 146.699219 L 111.78125 159.476562 "/>
<path style="fill:none;stroke-width:5.25;stroke-linecap:round;stroke-linejoin:round;stroke:rgb(0%,0%,0%);stroke-opacity:1;stroke-miterlimit:10;" d="M 120.703125 186.140625 L 108.890625 174.113281 "/>
<path style="fill-rule:nonzero;fill:rgb(0%,0%,0%);fill-opacity:1;stroke-width:0.75;stroke-linecap:round;stroke-linejoin:round;stroke:rgb(0%,0%,0%);stroke-opacity:1;stroke-miterlimit:10;" d="M 230.398438 144.214844 C 230.398438 151.519531 224.480469 157.4375 217.175781 157.4375 C 209.871094 157.4375 203.949219 151.519531 203.949219 144.214844 C 203.949219 136.910156 209.871094 130.988281 217.175781 130.988281 C 224.480469 130.988281 230.398438 136.910156 230.398438 144.214844 "/>
<path style="fill-rule:nonzero;fill:rgb(0%,0%,0%);fill-opacity:1;stroke-width:0.75;stroke-linecap:round;stroke-linejoin:round;stroke:rgb(0%,0%,0%);stroke-opacity:1;stroke-miterlimit:10;" d="M 167.03125 141.496094 C 167.03125 148.800781 161.109375 154.71875 153.804688 154.71875 C 146.503906 154.71875 140.582031 148.800781 140.582031 141.496094 C 140.582031 134.191406 146.503906 128.269531 153.804688 128.269531 C 161.109375 128.269531 167.03125 134.191406 167.03125 141.496094 "/>
<path style="fill-rule:nonzero;fill:rgb(0%,0%,0%);fill-opacity:1;stroke-width:0.75;stroke-linecap:round;stroke-linejoin:round;stroke:rgb(0%,0%,0%);stroke-opacity:1;stroke-miterlimit:10;" d="M 165.164062 78.023438 C 165.164062 85.328125 159.242188 91.25 151.9375 91.25 C 144.632812 91.25 138.714844 85.328125 138.714844 78.023438 C 138.714844 70.722656 144.632812 64.800781 151.9375 64.800781 C 159.242188 64.800781 165.164062 70.722656 165.164062 78.023438 "/>
<path style="fill-rule:nonzero;fill:rgb(0%,0%,0%);fill-opacity:1;stroke-width:0.75;stroke-linecap:round;stroke-linejoin:round;stroke:rgb(0%,0%,0%);stroke-opacity:1;stroke-miterlimit:10;" d="M 143.195312 195.574219 C 143.195312 202.878906 137.273438 208.800781 129.96875 208.800781 C 122.667969 208.800781 116.746094 202.878906 116.746094 195.574219 C 116.746094 188.273438 122.667969 182.351562 129.96875 182.351562 C 137.273438 182.351562 143.195312 188.273438 143.195312 195.574219 "/>
<path style="fill-rule:nonzero;fill:rgb(0%,0%,0%);fill-opacity:1;stroke-width:0.75;stroke-linecap:round;stroke-linejoin:round;stroke:rgb(0%,0%,0%);stroke-opacity:1;stroke-miterlimit:10;" d="M 112.847656 164.679688 C 112.847656 171.984375 106.929688 177.902344 99.625 177.902344 C 92.320312 177.902344 86.398438 171.984375 86.398438 164.679688 C 86.398438 157.375 92.320312 151.453125 99.625 151.453125 C 106.929688 151.453125 112.847656 157.375 112.847656 164.679688 "/>
</g>
</svg>
