<?xml version="1.0" encoding="UTF-8"?>
<svg xmlns="http://www.w3.org/2000/svg" xmlns:xlink="http://www.w3.org/1999/xlink" width="288pt" height="288pt" viewBox="0 0 288 288" version="1.1">
<g id="surface1">
<rect x="0" y="0" width="288" height="288" style="fill:rgb(100%,100%,100%);fill-opacity:1;stroke:none;"/>
<path style="fill:none;stroke-width:5.25;stroke-linecap:round;stroke-linejoin:round;stroke:rgb(0%,0%,0%);stroke-opacity:1;stroke-miterlimit:10;" d="M 205.089844 120.386719 L 189.789062 127.183594 "/>
<path style="fill:none;stroke-width:5.25;stroke-linecap:round;stroke-linejoin:round;stroke:rgb(0%,0%,0%);stroke-opacity:1;stroke-miterlimit:10;" d="M 165.089844 128.578125 L 149.167969 123.5625 "/>
<path style="fill:none;stroke-width:5.25;stroke-linecap:round;stroke-linejoin:round;stroke:rgb(0%,0%,0%);stroke-opacity:1;stroke-miterlimit:10;" d="M 173.070312 144.9375 L 158.765625 183.1875 "/>
<path style="fill:none;stroke-width:5.25;stroke-linecap:round;stroke-linejoin:round;stroke:rgb(0%,0%,0%);stroke-opacity:1;stroke-miterlimit:10;" d="M 139.535156 132.472656 L 151.152344 182.691406 "/>
<path style="fill:none;stroke-width:5.25;stroke-linecap:round;stroke-linejoin:round;stroke:rgb(0%,0%,0%);stroke-opacity:1;stroke-miterlimit:10;" d="M 127.769531 109.703125 L 108.40625 87.910156 "/>
<path style="fill-rule:nonzero;fill:rgb(0%,0%,0%);fill-opacity:1;stroke-width:0.75;stroke-linecap:round;stroke-linejoin:round;stroke:rgb(0%,0%,0%);stroke-opacity:1;stroke-miterlimit:10;" d="M 230.398438 115.019531 C 230.398438 122.324219 224.480469 128.246094 217.175781 128.246094 C 209.871094 128.246094 203.949219 122.324219 203.949219 115.019531 C 203.949219 107.714844 209.871094 101.796875 217.175781 101.796875 C 224.480469 101.796875 230.398438 107.714844 230.398438 115.019531 "/>
<path style="fill-rule:nonzero;fill:rgb(0%,0%,0%);fill-opacity:1;stroke-width:0.75;stroke-linecap:round;stroke-linejoin:round;stroke:rgb(0%,0%,0%);stroke-opacity:1;stroke-miterlimit:10;" d="M 190.929688 132.550781 C 190.929688 139.855469 185.007812 145.777344 177.703125 145.777344 C 170.402344 145.777344 164.480469 139.855469 164.480469 132.550781 C 164.480469 125.246094 170.402344 119.328125 177.703125 119.328125 C 185.007812 119.328125 190.929688 125.246094 190.929688 132.550781 "/>
<path style="fill-rule:nonzero;fill:rgb(0%,0%,0%);fill-opacity:1;stroke-width:0.75;stroke-linecap:round;stroke-linejoin:round;stroke:rgb(0%,0%,0%);stroke-opacity:1;stroke-miterlimit:10;" d="M 149.777344 119.589844 C 149.777344 126.890625 143.855469 132.8125 136.554688 132.8125 C 129.25 132.8125 123.328125 126.890625 123.328125 119.589844 C 123.328125 112.285156 129.25 106.363281 136.554688 106.363281 C 143.855469 106.363281 149.777344 112.285156 149.777344 119.589844 "/>
<path style="fill-rule:nonzero;fill:rgb(0%,0%,0%);fill-opacity:1;stroke-width:0.75;stroke-linecap:round;stroke-linejoin:round;stroke:rgb(0%,0%,0%);stroke-opacity:1;stroke-miterlimit:10;" d="M 167.355469 195.574219 C 167.355469 202.878906 161.433594 208.800781 154.132812 208.800781 C 146.828125 208.800781 140.90625 202.878906 140.90625 195.574219 C 140.90625 188.273438 146.828125 182.351562 154.132812 182.351562 C 161.433594 182.351562 167.355469 188.273438 167.355469 195.574219 "/>
<path style="fill-rule:nonzero;fill:rgb(0%,0%,0%);fill-opacity:1;stroke-width:0.75;stroke-linecap:round;stroke-linejoin:round;stroke:rgb(0%,0%,0%);stroke-opacity:1;stroke-miterlimit:10;" d="M 112.847656 78.023438 C 112.847656 85.328125 106.929688 91.25 99.625 91.25 C 92.320312 91.25 86.398438 85.328125 86.398438 78.023438 C 86.398438 70.722656 92.320312 64.800781 99.625 64.800781 C 106.929688 64.800781 112.847656 70.722656 112.847656 78.023438 "/>
</g>
</svg>
