<?xml version="1.0" encoding="UTF-8"?>
<svg xmlns="http://www.w3.org/2000/svg" xmlns:xlink="http://www.w3.org/1999/xlink" width="288pt" height="288pt" viewBox="0 0 288 288" version="1.1">
<g id="surface1">
<rect x="0" y="0" width="288" height="288" style="fill:rgb(100%,100%,100%);fill-opacity:1;stroke:none;"/>
<path style="fill:none;stroke-width:5.25;stroke-linecap:round;stroke-linejoin:round;stroke:rgb(0%,0%,0%);stroke-opacity:1;stroke-miterlimit:10;" d="M 207.613281 87.15625 L 182.398438 111.238281 "/>
<path style="fill:none;stroke-width:5.25;stroke-linecap:round;stroke-linejoin:round;stroke:rgb(0%,0%,0%);stroke-opacity:1;stroke-miterlimit:10;" d="M 159.609375 120.257812 L 141.738281 120.105469 "/>
<path style="fill:none;stroke-width:5.25;stroke-linecap:round;stroke-linejoin:round;stroke:rgb(0%,0%,0%);stroke-opacity:1;stroke-miterlimit:10;" d="M 167.433594 132.441406 L 144.578125 183.503906 "/>
<path style="fill:none;stroke-width:5.25;stroke-linecap:round;stroke-linejoin:round;stroke:rgb(0%,0%,0%);stroke-opacity:1;stroke-miterlimit:10;" d="M 130.359375 133.089844 L 137.328125 182.480469 "/>
<path style="fill:none;stroke-width:5.25;stroke-linecap:round;stroke-linejoin:round;stroke:rgb(0%,0%,0%);stroke-opacity:1;stroke-miterlimit:10;" d="M 123.496094 132.230469 L 104.640625 178.214844 "/>
<path style="fill:none;stroke-width:5.25;stroke-linecap:round;stroke-linejoin:round;stroke:rgb(0%,0%,0%);stroke-opacity:1;stroke-miterlimit:10;" d="M 126.0625 193.875 L 112.738281 192.152344 "/>
<path style="fill-rule:nonzero;fill:rgb(0%,0%,0%);fill-opacity:1;stroke-width:0.75;stroke-linecap:round;stroke-linejoin:round;stroke:rgb(0%,0%,0%);stroke-opacity:1;stroke-miterlimit:10;" d="M 230.398438 78.023438 C 230.398438 85.328125 224.480469 91.25 217.175781 91.25 C 209.871094 91.25 203.949219 85.328125 203.949219 78.023438 C 203.949219 70.722656 209.871094 64.800781 217.175781 64.800781 C 224.480469 64.800781 230.398438 70.722656 230.398438 78.023438 "/>
<path style="fill-rule:nonzero;fill:rgb(0%,0%,0%);fill-opacity:1;stroke-width:0.75;stroke-linecap:round;stroke-linejoin:round;stroke:rgb(0%,0%,0%);stroke-opacity:1;stroke-miterlimit:10;" d="M 186.058594 120.371094 C 186.058594 127.675781 180.136719 133.597656 172.835938 133.597656 C 165.53125 133.597656 159.609375 127.675781 159.609375 120.371094 C 159.609375 113.070312 165.53125 107.148438 172.835938 107.148438 C 180.136719 107.148438 186.058594 113.070312 186.058594 120.371094 "/>
<path style="fill-rule:nonzero;fill:rgb(0%,0%,0%);fill-opacity:1;stroke-width:0.75;stroke-linecap:round;stroke-linejoin:round;stroke:rgb(0%,0%,0%);stroke-opacity:1;stroke-miterlimit:10;" d="M 141.738281 119.992188 C 141.738281 127.296875 135.816406 133.21875 128.515625 133.21875 C 121.210938 133.21875 115.289062 127.296875 115.289062 119.992188 C 115.289062 112.691406 121.210938 106.769531 128.515625 106.769531 C 135.816406 106.769531 141.738281 112.691406 141.738281 119.992188 "/>
<path style="fill-rule:nonzero;fill:rgb(0%,0%,0%);fill-opacity:1;stroke-width:0.75;stroke-linecap:round;stroke-linejoin:round;stroke:rgb(0%,0%,0%);stroke-opacity:1;stroke-miterlimit:10;" d="M 152.402344 195.574219 C 152.402344 202.878906 146.480469 208.800781 139.175781 208.800781 C 131.871094 208.800781 125.953125 202.878906 125.953125 195.574219 C 125.953125 188.273438 131.871094 182.351562 139.175781 182.351562 C 146.480469 182.351562 152.402344 188.273438 152.402344 195.574219 "/>
<path style="fill-rule:nonzero;fill:rgb(0%,0%,0%);fill-opacity:1;stroke-width:0.75;stroke-linecap:round;stroke-linejoin:round;stroke:rgb(0%,0%,0%);stroke-opacity:1;stroke-miterlimit:10;" d="M 112.847656 190.453125 C 112.847656 197.753906 106.929688 203.675781 99.625 203.675781 C 92.320312 203.675781 86.398438 197.753906 86.398438 190.453125 C 86.398438 183.148438 92.320312 177.226562 99.625 177.226562 C 106.929688 177.226562 112.847656 183.148438 112.847656 190.453125 "/>
</g>
</svg>
