<?xml version="1.0" encoding="UTF-8"?>
<svg xmlns="http://www.w3.org/2000/svg" xmlns:xlink="http://www.w3.org/1999/xlink" width="288pt" height="288pt" viewBox="0 0 288 288" version="1.1">
<g id="surface1">
<rect x="0" y="0" width="288" height="288" style="fill:rgb(100%,100%,100%);fill-opacity:1;stroke:none;"/>
<path style="fill:none;stroke-width:5.25;stroke-linecap:round;stroke-linejoin:round;stroke:rgb(0%,0%,0%);stroke-opacity:1;stroke-miterlimit:10;" d="M 130.847656 188.4375 L 167.730469 164.78125 "/>
<path style="fill:none;stroke-width:5.25;stroke-linecap:round;stroke-linejoin:round;stroke:rgb(0%,0%,0%);stroke-opacity:1;stroke-miterlimit:10;" d="M 116.683594 182.703125 L 102.65625 123.109375 "/>
<path style="fill:none;stroke-width:5.25;stroke-linecap:round;stroke-linejoin:round;stroke:rgb(0%,0%,0%);stroke-opacity:1;stroke-miterlimit:10;" d="M 185.359375 146.125 L 210.679688 101.222656 "/>
<path style="fill:none;stroke-width:5.25;stroke-linecap:round;stroke-linejoin:round;stroke:rgb(0%,0%,0%);stroke-opacity:1;stroke-miterlimit:10;" d="M 175.878906 144.757812 L 163.414062 90.910156 "/>
<path style="fill:none;stroke-width:5.25;stroke-linecap:round;stroke-linejoin:round;stroke:rgb(0%,0%,0%);stroke-opacity:1;stroke-miterlimit:10;" d="M 111.3125 104.046875 L 148.746094 84.214844 "/>
<path style="fill:none;stroke-width:5.25;stroke-linecap:round;stroke-linejoin:round;stroke:rgb(0%,0%,0%);stroke-opacity:1;stroke-miterlimit:10;" d="M 204.222656 87.039062 L 173.386719 80.691406 "/>
<path style="fill-rule:nonzero;fill:rgb(0%,0%,0%);fill-opacity:1;stroke-width:0.75;stroke-linecap:round;stroke-linejoin:round;stroke:rgb(0%,0%,0%);stroke-opacity:1;stroke-miterlimit:10;" d="M 132.941406 195.574219 C 132.941406 202.878906 127.019531 208.800781 119.714844 208.800781 C 112.414062 208.800781 106.492188 202.878906 106.492188 195.574219 C 106.492188 188.273438 112.414062 182.351562 119.714844 182.351562 C 127.019531 182.351562 132.941406 188.273438 132.941406 195.574219 "/>
<path style="fill-rule:nonzero;fill:rgb(0%,0%,0%);fill-opacity:1;stroke-width:0.75;stroke-linecap:round;stroke-linejoin:round;stroke:rgb(0%,0%,0%);stroke-opacity:1;stroke-miterlimit:10;" d="M 192.085938 157.644531 C 192.085938 164.945312 186.167969 170.867188 178.863281 170.867188 C 171.558594 170.867188 165.636719 164.945312 165.636719 157.644531 C 165.636719 150.339844 171.558594 144.417969 178.863281 144.417969 C 186.167969 144.417969 192.085938 150.339844 192.085938 157.644531 "/>
<path style="fill-rule:nonzero;fill:rgb(0%,0%,0%);fill-opacity:1;stroke-width:0.75;stroke-linecap:round;stroke-linejoin:round;stroke:rgb(0%,0%,0%);stroke-opacity:1;stroke-miterlimit:10;" d="M 112.847656 110.234375 C 112.847656 117.539062 106.929688 123.460938 99.625 123.460938 C 92.320312 123.460938 86.398438 117.539062 86.398438 110.234375 C 86.398438 102.933594 92.320312 97.011719 99.625 97.011719 C 106.929688 97.011719 112.847656 102.933594 112.847656 110.234375 "/>
<path style="fill-rule:nonzero;fill:rgb(0%,0%,0%);fill-opacity:1;stroke-width:0.75;stroke-linecap:round;stroke-linejoin:round;stroke:rgb(0%,0%,0%);stroke-opacity:1;stroke-miterlimit:10;" d="M 230.398438 89.707031 C 230.398438 97.007812 224.480469 102.929688 217.175781 102.929688 C 209.871094 102.929688 203.949219 97.007812 203.949219 89.707031 C 203.949219 82.402344 209.871094 76.480469 217.175781 76.480469 C 224.480469 76.480469 230.398438 82.402344 230.398438 89.707031 "/>
<path style="fill-rule:nonzero;fill:rgb(0%,0%,0%);fill-opacity:1;stroke-width:0.75;stroke-linecap:round;stroke-linejoin:round;stroke:rgb(0%,0%,0%);stroke-opacity:1;stroke-miterlimit:10;" d="M 173.65625 78.023438 C 173.65625 85.328125 167.734375 91.25 160.433594 91.25 C 153.128906 91.25 147.207031 85.328125 147.207031 78.023438 C 147.207031 70.722656 153.128906 64.800781 160.433594 64.800781 C 167.734375 64.800781 173.65625 70.722656 173.65625 78.023438 "/>
</g>
</svg>
