<?xml version="1.0" encoding="UTF-8"?>
<svg xmlns="http://www.w3.org/2000/svg" xmlns:xlink="http://www.w3.org/1999/xlink" width="288pt" height="288pt" viewBox="0 0 288 288" version="1.1">
<g id="surface1">
<rect x="0" y="0" width="288" height="288" style="fill:rgb(100%,100%,100%);fill-opacity:1;stroke:none;"/>
<path style="fill:none;stroke-width:5.25;stroke-linecap:round;stroke-linejoin:round;stroke:rgb(0%,0%,0%);stroke-opacity:1;stroke-miterlimit:10;" d="M 207.542969 87.085938 L 201 93.246094 "/>
<path style="fill:none;stroke-width:5.25;stroke-linecap:round;stroke-linejoin:round;stroke:rgb(0%,0%,0%);stroke-opacity:1;stroke-miterlimit:10;" d="M 181.773438 111.40625 L 170.789062 121.816406 "/>
<path style="fill:none;stroke-width:5.25;stroke-linecap:round;stroke-linejoin:round;stroke:rgb(0%,0%,0%);stroke-opacity:1;stroke-miterlimit:10;" d="M 151.675781 140.097656 L 139.011719 152.328125 "/>
<path style="fill:none;stroke-width:5.25;stroke-linecap:round;stroke-linejoin:round;stroke:rgb(0%,0%,0%);stroke-opacity:1;stroke-miterlimit:10;" d="M 117 165.84375 L 112.117188 167.539062 "/>
<path style="fill:none;stroke-width:5.25;stroke-linecap:round;stroke-linejoin:round;stroke:rgb(0%,0%,0%);stroke-opacity:1;stroke-miterlimit:10;" d="M 123.847656 173.46875 L 119.054688 183.617188 "/>
<path style="fill:none;stroke-width:5.25;stroke-linecap:round;stroke-linejoin:round;stroke:rgb(0%,0%,0%);stroke-opacity:1;stroke-miterlimit:10;" d="M 106.269531 183.304688 L 106.757812 184.144531 "/>
<path style="fill-rule:nonzero;fill:rgb(0%,0%,0%);fill-opacity:1;stroke-width:0.75;stroke-linecap:round;stroke-linejoin:round;stroke:rgb(0%,0%,0%);stroke-opacity:1;stroke-miterlimit:10;" d="M 230.398438 78.023438 C 230.398438 85.328125 224.480469 91.25 217.175781 91.25 C 209.871094 91.25 203.949219 85.328125 203.949219 78.023438 C 203.949219 70.722656 209.871094 64.800781 217.175781 64.800781 C 224.480469 64.800781 230.398438 70.722656 230.398438 78.023438 "/>
<path style="fill-rule:nonzero;fill:rgb(0%,0%,0%);fill-opacity:1;stroke-width:0.75;stroke-linecap:round;stroke-linejoin:round;stroke:rgb(0%,0%,0%);stroke-opacity:1;stroke-miterlimit:10;" d="M 204.59375 102.308594 C 204.59375 109.613281 198.675781 115.53125 191.371094 115.53125 C 184.066406 115.53125 178.144531 109.613281 178.144531 102.308594 C 178.144531 95.003906 184.066406 89.082031 191.371094 89.082031 C 198.675781 89.082031 204.59375 95.003906 204.59375 102.308594 "/>
<path style="fill-rule:nonzero;fill:rgb(0%,0%,0%);fill-opacity:1;stroke-width:0.75;stroke-linecap:round;stroke-linejoin:round;stroke:rgb(0%,0%,0%);stroke-opacity:1;stroke-miterlimit:10;" d="M 174.414062 130.914062 C 174.414062 138.21875 168.492188 144.136719 161.1875 144.136719 C 153.886719 144.136719 147.964844 138.21875 147.964844 130.914062 C 147.964844 123.609375 153.886719 117.6875 161.1875 117.6875 C 168.492188 117.6875 174.414062 123.609375 174.414062 130.914062 "/>
<path style="fill-rule:nonzero;fill:rgb(0%,0%,0%);fill-opacity:1;stroke-width:0.75;stroke-linecap:round;stroke-linejoin:round;stroke:rgb(0%,0%,0%);stroke-opacity:1;stroke-miterlimit:10;" d="M 142.71875 161.511719 C 142.71875 168.816406 136.800781 174.738281 129.496094 174.738281 C 122.191406 174.738281 116.269531 168.816406 116.269531 161.511719 C 116.269531 154.207031 122.191406 148.289062 129.496094 148.289062 C 136.800781 148.289062 142.71875 154.207031 142.71875 161.511719 "/>
<path style="fill-rule:nonzero;fill:rgb(0%,0%,0%);fill-opacity:1;stroke-width:0.75;stroke-linecap:round;stroke-linejoin:round;stroke:rgb(0%,0%,0%);stroke-opacity:1;stroke-miterlimit:10;" d="M 112.847656 171.871094 C 112.847656 179.175781 106.929688 185.097656 99.625 185.097656 C 92.320312 185.097656 86.398438 179.175781 86.398438 171.871094 C 86.398438 164.570312 92.320312 158.648438 99.625 158.648438 C 106.929688 158.648438 112.847656 164.570312 112.847656 171.871094 "/>
<path style="fill-rule:nonzero;fill:rgb(0%,0%,0%);fill-opacity:1;stroke-width:0.75;stroke-linecap:round;stroke-linejoin:round;stroke:rgb(0%,0%,0%);stroke-opacity:1;stroke-miterlimit:10;" d="M 126.628906 195.574219 C 126.628906 202.878906 120.707031 208.800781 113.402344 208.800781 C 106.101562 208.800781 100.179688 202.878906 100.179688 195.574219 C 100.179688 188.273438 106.101562 182.351562 113.402344 182.351562 C 120.707031 182.351562 126.628906 188.273438 126.628906 195.574219 "/>
</g>
</svg>
