<?xml version="1.0" encoding="UTF-8"?>
<svg xmlns="http://www.w3.org/2000/svg" xmlns:xlink="http://www.w3.org/1999/xlink" width="288pt" height="288pt" viewBox="0 0 288 288" version="1.1">
<g id="surface1">
<rect x="0" y="0" width="288" height="288" style="fill:rgb(100%,100%,100%);fill-opacity:1;stroke:none;"/>
<path style="fill:none;stroke-width:5.25;stroke-linecap:round;stroke-linejoin:round;stroke:rgb(0%,0%,0%);stroke-opacity:1;stroke-miterlimit:10;" d="M 160.46875 91.175781 L 159.3125 102.25 "/>
<path style="fill:none;stroke-width:5.25;stroke-linecap:round;stroke-linejoin:round;stroke:rgb(0%,0%,0%);stroke-opacity:1;stroke-miterlimit:10;" d="M 156.941406 128.589844 L 155.472656 147.875 "/>
<path style="fill:none;stroke-width:5.25;stroke-linecap:round;stroke-linejoin:round;stroke:rgb(0%,0%,0%);stroke-opacity:1;stroke-miterlimit:10;" d="M 167.484375 163.410156 L 204.160156 170.023438 "/>
<path style="fill:none;stroke-width:5.25;stroke-linecap:round;stroke-linejoin:round;stroke:rgb(0%,0%,0%);stroke-opacity:1;stroke-miterlimit:10;" d="M 147.320312 172.1875 L 139.441406 184.449219 "/>
<path style="fill:none;stroke-width:5.25;stroke-linecap:round;stroke-linejoin:round;stroke:rgb(0%,0%,0%);stroke-opacity:1;stroke-miterlimit:10;" d="M 141.882812 165.117188 L 112.210938 174.679688 "/>
<path style="fill:none;stroke-width:5.25;stroke-linecap:round;stroke-linejoin:round;stroke:rgb(0%,0%,0%);stroke-opacity:1;stroke-miterlimit:10;" d="M 120.535156 189.515625 L 111.378906 184.796875 "/>
<path style="fill-rule:nonzero;fill:rgb(0%,0%,0%);fill-opacity:1;stroke-width:0.75;stroke-linecap:round;stroke-linejoin:round;stroke:rgb(0%,0%,0%);stroke-opacity:1;stroke-miterlimit:10;" d="M 175.0625 78.023438 C 175.0625 85.328125 169.140625 91.25 161.839844 91.25 C 154.535156 91.25 148.613281 85.328125 148.613281 78.023438 C 148.613281 70.722656 154.535156 64.800781 161.839844 64.800781 C 169.140625 64.800781 175.0625 70.722656 175.0625 78.023438 "/>
<path style="fill-rule:nonzero;fill:rgb(0%,0%,0%);fill-opacity:1;stroke-width:0.75;stroke-linecap:round;stroke-linejoin:round;stroke:rgb(0%,0%,0%);stroke-opacity:1;stroke-miterlimit:10;" d="M 171.167969 115.402344 C 171.167969 122.707031 165.246094 128.628906 157.941406 128.628906 C 150.636719 128.628906 144.71875 122.707031 144.71875 115.402344 C 144.71875 108.101562 150.636719 102.179688 157.941406 102.179688 C 165.246094 102.179688 171.167969 108.101562 171.167969 115.402344 "/>
<path style="fill-rule:nonzero;fill:rgb(0%,0%,0%);fill-opacity:1;stroke-width:0.75;stroke-linecap:round;stroke-linejoin:round;stroke:rgb(0%,0%,0%);stroke-opacity:1;stroke-miterlimit:10;" d="M 167.695312 161.0625 C 167.695312 168.363281 161.773438 174.285156 154.46875 174.285156 C 147.167969 174.285156 141.246094 168.363281 141.246094 161.0625 C 141.246094 153.757812 147.167969 147.835938 154.46875 147.835938 C 161.773438 147.835938 167.695312 153.757812 167.695312 161.0625 "/>
<path style="fill-rule:nonzero;fill:rgb(0%,0%,0%);fill-opacity:1;stroke-width:0.75;stroke-linecap:round;stroke-linejoin:round;stroke:rgb(0%,0%,0%);stroke-opacity:1;stroke-miterlimit:10;" d="M 230.398438 172.371094 C 230.398438 179.675781 224.480469 185.597656 217.175781 185.597656 C 209.871094 185.597656 203.949219 179.675781 203.949219 172.371094 C 203.949219 165.066406 209.871094 159.148438 217.175781 159.148438 C 224.480469 159.148438 230.398438 165.066406 230.398438 172.371094 "/>
<path style="fill-rule:nonzero;fill:rgb(0%,0%,0%);fill-opacity:1;stroke-width:0.75;stroke-linecap:round;stroke-linejoin:round;stroke:rgb(0%,0%,0%);stroke-opacity:1;stroke-miterlimit:10;" d="M 145.515625 195.574219 C 145.515625 202.878906 139.59375 208.800781 132.292969 208.800781 C 124.988281 208.800781 119.066406 202.878906 119.066406 195.574219 C 119.066406 188.273438 124.988281 182.351562 132.292969 182.351562 C 139.59375 182.351562 145.515625 188.273438 145.515625 195.574219 "/>
<path style="fill-rule:nonzero;fill:rgb(0%,0%,0%);fill-opacity:1;stroke-width:0.75;stroke-linecap:round;stroke-linejoin:round;stroke:rgb(0%,0%,0%);stroke-opacity:1;stroke-miterlimit:10;" d="M 112.847656 178.738281 C 112.847656 186.042969 106.929688 191.960938 99.625 191.960938 C 92.320312 191.960938 86.398438 186.042969 86.398438 178.738281 C 86.398438 171.433594 92.320312 165.515625 99.625 165.515625 C 106.929688 165.515625 112.847656 171.433594 112.847656 178.738281 "/>
</g>
</svg>
