<?xml version="1.0" encoding="UTF-8"?>
<svg xmlns="http://www.w3.org/2000/svg" xmlns:xlink="http://www.w3.org/1999/xlink" width="288pt" height="288pt" viewBox="0 0 288 288" version="1.1">
<g id="surface1">
<rect x="0" y="0" width="288" height="288" style="fill:rgb(100%,100%,100%);fill-opacity:1;stroke:none;"/>
<path style="fill:none;stroke-width:5.25;stroke-linecap:round;stroke-linejoin:round;stroke:rgb(0%,0%,0%);stroke-opacity:1;stroke-miterlimit:10;" d="M 182.535156 90.800781 L 179.269531 103.027344 "/>
<path style="fill:none;stroke-width:5.25;stroke-linecap:round;stroke-linejoin:round;stroke:rgb(0%,0%,0%);stroke-opacity:1;stroke-miterlimit:10;" d="M 172.585938 128.613281 L 167.289062 149.347656 "/>
<path style="fill:none;stroke-width:5.25;stroke-linecap:round;stroke-linejoin:round;stroke:rgb(0%,0%,0%);stroke-opacity:1;stroke-miterlimit:10;" d="M 175.78125 168.199219 L 205.410156 183.410156 "/>
<path style="fill:none;stroke-width:5.25;stroke-linecap:round;stroke-linejoin:round;stroke:rgb(0%,0%,0%);stroke-opacity:1;stroke-miterlimit:10;" d="M 151.472656 166.351562 L 112.167969 179.484375 "/>
<path style="fill:none;stroke-width:5.25;stroke-linecap:round;stroke-linejoin:round;stroke:rgb(0%,0%,0%);stroke-opacity:1;stroke-miterlimit:10;" d="M 160.960938 175.027344 L 159.140625 182.707031 "/>
<path style="fill:none;stroke-width:5.25;stroke-linecap:round;stroke-linejoin:round;stroke:rgb(0%,0%,0%);stroke-opacity:1;stroke-miterlimit:10;" d="M 204.015625 190.769531 L 169.242188 194.253906 "/>
<path style="fill:none;stroke-width:5.25;stroke-linecap:round;stroke-linejoin:round;stroke:rgb(0%,0%,0%);stroke-opacity:1;stroke-miterlimit:10;" d="M 112.566406 186.402344 L 143.144531 192.847656 "/>
<path style="fill-rule:nonzero;fill:rgb(0%,0%,0%);fill-opacity:1;stroke-width:0.75;stroke-linecap:round;stroke-linejoin:round;stroke:rgb(0%,0%,0%);stroke-opacity:1;stroke-miterlimit:10;" d="M 199.171875 78.023438 C 199.171875 85.328125 193.253906 91.25 185.949219 91.25 C 178.644531 91.25 172.722656 85.328125 172.722656 78.023438 C 172.722656 70.722656 178.644531 64.800781 185.949219 64.800781 C 193.253906 64.800781 199.171875 70.722656 199.171875 78.023438 "/>
<path style="fill-rule:nonzero;fill:rgb(0%,0%,0%);fill-opacity:1;stroke-width:0.75;stroke-linecap:round;stroke-linejoin:round;stroke:rgb(0%,0%,0%);stroke-opacity:1;stroke-miterlimit:10;" d="M 189.082031 115.800781 C 189.082031 123.105469 183.164062 129.027344 175.859375 129.027344 C 168.554688 129.027344 162.632812 123.105469 162.632812 115.800781 C 162.632812 108.5 168.554688 102.578125 175.859375 102.578125 C 183.164062 102.578125 189.082031 108.5 189.082031 115.800781 "/>
<path style="fill-rule:nonzero;fill:rgb(0%,0%,0%);fill-opacity:1;stroke-width:0.75;stroke-linecap:round;stroke-linejoin:round;stroke:rgb(0%,0%,0%);stroke-opacity:1;stroke-miterlimit:10;" d="M 177.242188 162.160156 C 177.242188 169.464844 171.320312 175.382812 164.015625 175.382812 C 156.710938 175.382812 150.792969 169.464844 150.792969 162.160156 C 150.792969 154.855469 156.710938 148.933594 164.015625 148.933594 C 171.320312 148.933594 177.242188 154.855469 177.242188 162.160156 "/>
<path style="fill-rule:nonzero;fill:rgb(0%,0%,0%);fill-opacity:1;stroke-width:0.75;stroke-linecap:round;stroke-linejoin:round;stroke:rgb(0%,0%,0%);stroke-opacity:1;stroke-miterlimit:10;" d="M 230.398438 189.449219 C 230.398438 196.75 224.480469 202.671875 217.175781 202.671875 C 209.871094 202.671875 203.949219 196.75 203.949219 189.449219 C 203.949219 182.144531 209.871094 176.222656 217.175781 176.222656 C 224.480469 176.222656 230.398438 182.144531 230.398438 189.449219 "/>
<path style="fill-rule:nonzero;fill:rgb(0%,0%,0%);fill-opacity:1;stroke-width:0.75;stroke-linecap:round;stroke-linejoin:round;stroke:rgb(0%,0%,0%);stroke-opacity:1;stroke-miterlimit:10;" d="M 112.847656 183.671875 C 112.847656 190.976562 106.929688 196.898438 99.625 196.898438 C 92.320312 196.898438 86.398438 190.976562 86.398438 183.671875 C 86.398438 176.371094 92.320312 170.449219 99.625 170.449219 C 106.929688 170.449219 112.847656 176.371094 112.847656 183.671875 "/>
<path style="fill-rule:nonzero;fill:rgb(0%,0%,0%);fill-opacity:1;stroke-width:0.75;stroke-linecap:round;stroke-linejoin:round;stroke:rgb(0%,0%,0%);stroke-opacity:1;stroke-miterlimit:10;" d="M 169.308594 195.574219 C 169.308594 202.878906 163.390625 208.800781 156.085938 208.800781 C 148.78125 208.800781 142.859375 202.878906 142.859375 195.574219 C 142.859375 188.273438 148.78125 182.351562 156.085938 182.351562 C 163.390625 182.351562 169.308594 188.273438 169.308594 195.574219 "/>
</g>
</svg>
