<?xml version="1.0" encoding="UTF-8"?>
<svg xmlns="http://www.w3.org/2000/svg" xmlns:xlink="http://www.w3.org/1999/xlink" width="288pt" height="288pt" viewBox="0 0 288 288" version="1.1">
<g id="surface1">
<rect x="0" y="0" width="288" height="288" style="fill:rgb(100%,100%,100%);fill-opacity:1;stroke:none;"/>
<path style="fill:none;stroke-width:5.25;stroke-linecap:round;stroke-linejoin:round;stroke:rgb(0%,0%,0%);stroke-opacity:1;stroke-miterlimit:10;" d="M 208.203125 185.859375 L 201.742188 178.863281 "/>
<path style="fill:none;stroke-width:5.25;stroke-linecap:round;stroke-linejoin:round;stroke:rgb(0%,0%,0%);stroke-opacity:1;stroke-miterlimit:10;" d="M 183.703125 159.519531 L 171.738281 146.808594 "/>
<path style="fill:none;stroke-width:5.25;stroke-linecap:round;stroke-linejoin:round;stroke:rgb(0%,0%,0%);stroke-opacity:1;stroke-miterlimit:10;" d="M 160.621094 124.117188 L 159.839844 119.160156 "/>
<path style="fill:none;stroke-width:5.25;stroke-linecap:round;stroke-linejoin:round;stroke:rgb(0%,0%,0%);stroke-opacity:1;stroke-miterlimit:10;" d="M 149.859375 133.910156 L 112.4375 124.355469 "/>
<path style="fill:none;stroke-width:5.25;stroke-linecap:round;stroke-linejoin:round;stroke:rgb(0%,0%,0%);stroke-opacity:1;stroke-miterlimit:10;" d="M 144.980469 109.394531 L 112.429688 117.78125 "/>
<path style="fill:none;stroke-width:5.25;stroke-linecap:round;stroke-linejoin:round;stroke:rgb(0%,0%,0%);stroke-opacity:1;stroke-miterlimit:10;" d="M 163.515625 94.175781 L 165.546875 89.945312 "/>
<path style="fill-rule:nonzero;fill:rgb(0%,0%,0%);fill-opacity:1;stroke-width:0.75;stroke-linecap:round;stroke-linejoin:round;stroke:rgb(0%,0%,0%);stroke-opacity:1;stroke-miterlimit:10;" d="M 230.398438 195.574219 C 230.398438 202.878906 224.480469 208.800781 217.175781 208.800781 C 209.871094 208.800781 203.949219 202.878906 203.949219 195.574219 C 203.949219 188.273438 209.871094 182.351562 217.175781 182.351562 C 224.480469 182.351562 230.398438 188.273438 230.398438 195.574219 "/>
<path style="fill-rule:nonzero;fill:rgb(0%,0%,0%);fill-opacity:1;stroke-width:0.75;stroke-linecap:round;stroke-linejoin:round;stroke:rgb(0%,0%,0%);stroke-opacity:1;stroke-miterlimit:10;" d="M 205.992188 169.148438 C 205.992188 176.453125 200.070312 182.375 192.769531 182.375 C 185.464844 182.375 179.542969 176.453125 179.542969 169.148438 C 179.542969 161.847656 185.464844 155.925781 192.769531 155.925781 C 200.070312 155.925781 205.992188 161.847656 205.992188 169.148438 "/>
<path style="fill-rule:nonzero;fill:rgb(0%,0%,0%);fill-opacity:1;stroke-width:0.75;stroke-linecap:round;stroke-linejoin:round;stroke:rgb(0%,0%,0%);stroke-opacity:1;stroke-miterlimit:10;" d="M 175.898438 137.179688 C 175.898438 144.484375 169.976562 150.40625 162.671875 150.40625 C 155.371094 150.40625 149.449219 144.484375 149.449219 137.179688 C 149.449219 129.878906 155.371094 123.957031 162.671875 123.957031 C 169.976562 123.957031 175.898438 129.878906 175.898438 137.179688 "/>
<path style="fill-rule:nonzero;fill:rgb(0%,0%,0%);fill-opacity:1;stroke-width:0.75;stroke-linecap:round;stroke-linejoin:round;stroke:rgb(0%,0%,0%);stroke-opacity:1;stroke-miterlimit:10;" d="M 171.011719 106.09375 C 171.011719 113.398438 165.09375 119.320312 157.789062 119.320312 C 150.484375 119.320312 144.5625 113.398438 144.5625 106.09375 C 144.5625 98.789062 150.484375 92.871094 157.789062 92.871094 C 165.09375 92.871094 171.011719 98.789062 171.011719 106.09375 "/>
<path style="fill-rule:nonzero;fill:rgb(0%,0%,0%);fill-opacity:1;stroke-width:0.75;stroke-linecap:round;stroke-linejoin:round;stroke:rgb(0%,0%,0%);stroke-opacity:1;stroke-miterlimit:10;" d="M 112.847656 121.082031 C 112.847656 128.386719 106.929688 134.308594 99.625 134.308594 C 92.320312 134.308594 86.398438 128.386719 86.398438 121.082031 C 86.398438 113.777344 92.320312 107.859375 99.625 107.859375 C 106.929688 107.859375 112.847656 113.777344 112.847656 121.082031 "/>
<path style="fill-rule:nonzero;fill:rgb(0%,0%,0%);fill-opacity:1;stroke-width:0.75;stroke-linecap:round;stroke-linejoin:round;stroke:rgb(0%,0%,0%);stroke-opacity:1;stroke-miterlimit:10;" d="M 184.5 78.023438 C 184.5 85.328125 178.578125 91.25 171.273438 91.25 C 163.96875 91.25 158.050781 85.328125 158.050781 78.023438 C 158.050781 70.722656 163.96875 64.800781 171.273438 64.800781 C 178.578125 64.800781 184.5 70.722656 184.5 78.023438 "/>
</g>
</svg>
