<?xml version="1.0" encoding="UTF-8"?>
<svg xmlns="http://www.w3.org/2000/svg" xmlns:xlink="http://www.w3.org/1999/xlink" width="288pt" height="288pt" viewBox="0 0 288 288" version="1.1">
<g id="surface1">
<rect x="0" y="0" width="288" height="288" style="fill:rgb(100%,100%,100%);fill-opacity:1;stroke:none;"/>
<path style="fill:none;stroke-width:5.25;stroke-linecap:round;stroke-linejoin:round;stroke:rgb(0%,0%,0%);stroke-opacity:1;stroke-miterlimit:10;" d="M 105.183594 90.023438 L 121.851562 126.007812 "/>
<path style="fill:none;stroke-width:5.25;stroke-linecap:round;stroke-linejoin:round;stroke:rgb(0%,0%,0%);stroke-opacity:1;stroke-miterlimit:10;" d="M 140.085938 141.769531 L 160.617188 147.863281 "/>
<path style="fill:none;stroke-width:5.25;stroke-linecap:round;stroke-linejoin:round;stroke:rgb(0%,0%,0%);stroke-opacity:1;stroke-miterlimit:10;" d="M 123.148438 150.523438 L 112.070312 183.058594 "/>
<path style="fill:none;stroke-width:5.25;stroke-linecap:round;stroke-linejoin:round;stroke:rgb(0%,0%,0%);stroke-opacity:1;stroke-miterlimit:10;" d="M 131.082031 150.710938 L 138.269531 175.554688 "/>
<path style="fill:none;stroke-width:5.25;stroke-linecap:round;stroke-linejoin:round;stroke:rgb(0%,0%,0%);stroke-opacity:1;stroke-miterlimit:10;" d="M 164.699219 161.671875 L 150.539062 178.214844 "/>
<path style="fill:none;stroke-width:5.25;stroke-linecap:round;stroke-linejoin:round;stroke:rgb(0%,0%,0%);stroke-opacity:1;stroke-miterlimit:10;" d="M 186.363281 149.59375 L 204.109375 146.835938 "/>
<path style="fill:none;stroke-width:5.25;stroke-linecap:round;stroke-linejoin:round;stroke:rgb(0%,0%,0%);stroke-opacity:1;stroke-miterlimit:10;" d="M 120.738281 192.804688 L 129.011719 191.03125 "/>
<path style="fill-rule:nonzero;fill:rgb(0%,0%,0%);fill-opacity:1;stroke-width:0.75;stroke-linecap:round;stroke-linejoin:round;stroke:rgb(0%,0%,0%);stroke-opacity:1;stroke-miterlimit:10;" d="M 112.847656 78.023438 C 112.847656 85.328125 106.929688 91.25 99.625 91.25 C 92.320312 91.25 86.398438 85.328125 86.398438 78.023438 C 86.398438 70.722656 92.320312 64.800781 99.625 64.800781 C 106.929688 64.800781 112.847656 70.722656 112.847656 78.023438 "/>
<path style="fill-rule:nonzero;fill:rgb(0%,0%,0%);fill-opacity:1;stroke-width:0.75;stroke-linecap:round;stroke-linejoin:round;stroke:rgb(0%,0%,0%);stroke-opacity:1;stroke-miterlimit:10;" d="M 140.632812 138.003906 C 140.632812 145.308594 134.714844 151.230469 127.410156 151.230469 C 120.105469 151.230469 114.183594 145.308594 114.183594 138.003906 C 114.183594 130.703125 120.105469 124.78125 127.410156 124.78125 C 134.714844 124.78125 140.632812 130.703125 140.632812 138.003906 "/>
<path style="fill-rule:nonzero;fill:rgb(0%,0%,0%);fill-opacity:1;stroke-width:0.75;stroke-linecap:round;stroke-linejoin:round;stroke:rgb(0%,0%,0%);stroke-opacity:1;stroke-miterlimit:10;" d="M 186.519531 151.625 C 186.519531 158.929688 180.601562 164.851562 173.296875 164.851562 C 165.992188 164.851562 160.070312 158.929688 160.070312 151.625 C 160.070312 144.320312 165.992188 138.402344 173.296875 138.402344 C 180.601562 138.402344 186.519531 144.320312 186.519531 151.625 "/>
<path style="fill-rule:nonzero;fill:rgb(0%,0%,0%);fill-opacity:1;stroke-width:0.75;stroke-linecap:round;stroke-linejoin:round;stroke:rgb(0%,0%,0%);stroke-opacity:1;stroke-miterlimit:10;" d="M 121.03125 195.574219 C 121.03125 202.878906 115.109375 208.800781 107.808594 208.800781 C 100.503906 208.800781 94.582031 202.878906 94.582031 195.574219 C 94.582031 188.273438 100.503906 182.351562 107.808594 182.351562 C 115.109375 182.351562 121.03125 188.273438 121.03125 195.574219 "/>
<path style="fill-rule:nonzero;fill:rgb(0%,0%,0%);fill-opacity:1;stroke-width:0.75;stroke-linecap:round;stroke-linejoin:round;stroke:rgb(0%,0%,0%);stroke-opacity:1;stroke-miterlimit:10;" d="M 155.167969 188.261719 C 155.167969 195.5625 149.246094 201.484375 141.941406 201.484375 C 134.636719 201.484375 128.71875 195.5625 128.71875 188.261719 C 128.71875 180.957031 134.636719 175.035156 141.941406 175.035156 C 149.246094 175.035156 155.167969 180.957031 155.167969 188.261719 "/>
<path style="fill-rule:nonzero;fill:rgb(0%,0%,0%);fill-opacity:1;stroke-width:0.75;stroke-linecap:round;stroke-linejoin:round;stroke:rgb(0%,0%,0%);stroke-opacity:1;stroke-miterlimit:10;" d="M 230.398438 144.804688 C 230.398438 152.109375 224.480469 158.027344 217.175781 158.027344 C 209.871094 158.027344 203.949219 152.109375 203.949219 144.804688 C 203.949219 137.5 209.871094 131.578125 217.175781 131.578125 C 224.480469 131.578125 230.398438 137.5 230.398438 144.804688 "/>
</g>
</svg>
