<?xml version="1.0" encoding="UTF-8"?>
<svg xmlns="http://www.w3.org/2000/svg" xmlns:xlink="http://www.w3.org/1999/xlink" width="288pt" height="288pt" viewBox="0 0 288 288" version="1.1">
<g id="surface1">
<rect x="0" y="0" width="288" height="288" style="fill:rgb(100%,100%,100%);fill-opacity:1;stroke:none;"/>
<path style="fill:none;stroke-width:5.25;stroke-linecap:round;stroke-linejoin:round;stroke:rgb(0%,0%,0%);stroke-opacity:1;stroke-miterlimit:10;" d="M 176.445312 91.230469 L 175.542969 107.933594 "/>
<path style="fill:none;stroke-width:5.25;stroke-linecap:round;stroke-linejoin:round;stroke:rgb(0%,0%,0%);stroke-opacity:1;stroke-miterlimit:10;" d="M 165.390625 130.398438 L 146.0625 149.359375 "/>
<path style="fill:none;stroke-width:5.25;stroke-linecap:round;stroke-linejoin:round;stroke:rgb(0%,0%,0%);stroke-opacity:1;stroke-miterlimit:10;" d="M 188.050781 120.820312 L 203.953125 120.441406 "/>
<path style="fill:none;stroke-width:5.25;stroke-linecap:round;stroke-linejoin:round;stroke:rgb(0%,0%,0%);stroke-opacity:1;stroke-miterlimit:10;" d="M 124.464844 163.828125 L 111.78125 169.261719 "/>
<path style="fill:none;stroke-width:5.25;stroke-linecap:round;stroke-linejoin:round;stroke:rgb(0%,0%,0%);stroke-opacity:1;stroke-miterlimit:10;" d="M 131.152344 170.660156 L 125.296875 183.535156 "/>
<path style="fill:none;stroke-width:5.25;stroke-linecap:round;stroke-linejoin:round;stroke:rgb(0%,0%,0%);stroke-opacity:1;stroke-miterlimit:10;" d="M 108.769531 184.023438 L 110.683594 186.023438 "/>
<path style="fill-rule:nonzero;fill:rgb(0%,0%,0%);fill-opacity:1;stroke-width:0.75;stroke-linecap:round;stroke-linejoin:round;stroke:rgb(0%,0%,0%);stroke-opacity:1;stroke-miterlimit:10;" d="M 190.382812 78.023438 C 190.382812 85.328125 184.464844 91.25 177.160156 91.25 C 169.855469 91.25 163.933594 85.328125 163.933594 78.023438 C 163.933594 70.722656 169.855469 64.800781 177.160156 64.800781 C 184.464844 64.800781 190.382812 70.722656 190.382812 78.023438 "/>
<path style="fill-rule:nonzero;fill:rgb(0%,0%,0%);fill-opacity:1;stroke-width:0.75;stroke-linecap:round;stroke-linejoin:round;stroke:rgb(0%,0%,0%);stroke-opacity:1;stroke-miterlimit:10;" d="M 188.054688 121.140625 C 188.054688 128.441406 182.132812 134.363281 174.828125 134.363281 C 167.527344 134.363281 161.605469 128.441406 161.605469 121.140625 C 161.605469 113.835938 167.527344 107.914062 174.828125 107.914062 C 182.132812 107.914062 188.054688 113.835938 188.054688 121.140625 "/>
<path style="fill-rule:nonzero;fill:rgb(0%,0%,0%);fill-opacity:1;stroke-width:0.75;stroke-linecap:round;stroke-linejoin:round;stroke:rgb(0%,0%,0%);stroke-opacity:1;stroke-miterlimit:10;" d="M 149.847656 158.621094 C 149.847656 165.921875 143.925781 171.84375 136.621094 171.84375 C 129.320312 171.84375 123.398438 165.921875 123.398438 158.621094 C 123.398438 151.316406 129.320312 145.394531 136.621094 145.394531 C 143.925781 145.394531 149.847656 151.316406 149.847656 158.621094 "/>
<path style="fill-rule:nonzero;fill:rgb(0%,0%,0%);fill-opacity:1;stroke-width:0.75;stroke-linecap:round;stroke-linejoin:round;stroke:rgb(0%,0%,0%);stroke-opacity:1;stroke-miterlimit:10;" d="M 230.398438 120.125 C 230.398438 127.425781 224.480469 133.347656 217.175781 133.347656 C 209.871094 133.347656 203.949219 127.425781 203.949219 120.125 C 203.949219 112.820312 209.871094 106.898438 217.175781 106.898438 C 224.480469 106.898438 230.398438 112.820312 230.398438 120.125 "/>
<path style="fill-rule:nonzero;fill:rgb(0%,0%,0%);fill-opacity:1;stroke-width:0.75;stroke-linecap:round;stroke-linejoin:round;stroke:rgb(0%,0%,0%);stroke-opacity:1;stroke-miterlimit:10;" d="M 112.847656 174.46875 C 112.847656 181.773438 106.929688 187.695312 99.625 187.695312 C 92.320312 187.695312 86.398438 181.773438 86.398438 174.46875 C 86.398438 167.164062 92.320312 161.246094 99.625 161.246094 C 106.929688 161.246094 112.847656 167.164062 112.847656 174.46875 "/>
<path style="fill-rule:nonzero;fill:rgb(0%,0%,0%);fill-opacity:1;stroke-width:0.75;stroke-linecap:round;stroke-linejoin:round;stroke:rgb(0%,0%,0%);stroke-opacity:1;stroke-miterlimit:10;" d="M 133.050781 195.574219 C 133.050781 202.878906 127.128906 208.800781 119.828125 208.800781 C 112.523438 208.800781 106.601562 202.878906 106.601562 195.574219 C 106.601562 188.273438 112.523438 182.351562 119.828125 182.351562 C 127.128906 182.351562 133.050781 188.273438 133.050781 195.574219 "/>
</g>
</svg>
