<?xml version="1.0" encoding="UTF-8"?>
<svg xmlns="http://www.w3.org/2000/svg" xmlns:xlink="http://www.w3.org/1999/xlink" width="288pt" height="288pt" viewBox="0 0 288 288" version="1.1">
<g id="surface1">
<rect x="0" y="0" width="288" height="288" style="fill:rgb(100%,100%,100%);fill-opacity:1;stroke:none;"/>
<path style="fill:none;stroke-width:5.25;stroke-linecap:round;stroke-linejoin:round;stroke:rgb(0%,0%,0%);stroke-opacity:1;stroke-miterlimit:10;" d="M 204.308594 171.316406 L 162.523438 161.386719 "/>
<path style="fill:none;stroke-width:5.25;stroke-linecap:round;stroke-linejoin:round;stroke:rgb(0%,0%,0%);stroke-opacity:1;stroke-miterlimit:10;" d="M 145.839844 145.667969 L 140.828125 129.035156 "/>
<path style="fill:none;stroke-width:5.25;stroke-linecap:round;stroke-linejoin:round;stroke:rgb(0%,0%,0%);stroke-opacity:1;stroke-miterlimit:10;" d="M 142.753906 169.609375 L 133.765625 184.296875 "/>
<path style="fill:none;stroke-width:5.25;stroke-linecap:round;stroke-linejoin:round;stroke:rgb(0%,0%,0%);stroke-opacity:1;stroke-miterlimit:10;" d="M 137.402344 153.363281 L 111.878906 143.011719 "/>
<path style="fill:none;stroke-width:5.25;stroke-linecap:round;stroke-linejoin:round;stroke:rgb(0%,0%,0%);stroke-opacity:1;stroke-miterlimit:10;" d="M 125.570312 123.003906 L 111.066406 131.410156 "/>
<path style="fill:none;stroke-width:5.25;stroke-linecap:round;stroke-linejoin:round;stroke:rgb(0%,0%,0%);stroke-opacity:1;stroke-miterlimit:10;" d="M 138.007812 103.183594 L 138.914062 91.210938 "/>
<path style="fill-rule:nonzero;fill:rgb(0%,0%,0%);fill-opacity:1;stroke-width:0.75;stroke-linecap:round;stroke-linejoin:round;stroke:rgb(0%,0%,0%);stroke-opacity:1;stroke-miterlimit:10;" d="M 230.398438 174.375 C 230.398438 181.679688 224.480469 187.597656 217.175781 187.597656 C 209.871094 187.597656 203.949219 181.679688 203.949219 174.375 C 203.949219 167.070312 209.871094 161.148438 217.175781 161.148438 C 224.480469 161.148438 230.398438 167.070312 230.398438 174.375 "/>
<path style="fill-rule:nonzero;fill:rgb(0%,0%,0%);fill-opacity:1;stroke-width:0.75;stroke-linecap:round;stroke-linejoin:round;stroke:rgb(0%,0%,0%);stroke-opacity:1;stroke-miterlimit:10;" d="M 162.882812 158.332031 C 162.882812 165.636719 156.960938 171.554688 149.65625 171.554688 C 142.355469 171.554688 136.433594 165.636719 136.433594 158.332031 C 136.433594 151.027344 142.355469 145.105469 149.65625 145.105469 C 156.960938 145.105469 162.882812 151.027344 162.882812 158.332031 "/>
<path style="fill-rule:nonzero;fill:rgb(0%,0%,0%);fill-opacity:1;stroke-width:0.75;stroke-linecap:round;stroke-linejoin:round;stroke:rgb(0%,0%,0%);stroke-opacity:1;stroke-miterlimit:10;" d="M 150.234375 116.371094 C 150.234375 123.675781 144.316406 129.597656 137.011719 129.597656 C 129.707031 129.597656 123.785156 123.675781 123.785156 116.371094 C 123.785156 109.066406 129.707031 103.148438 137.011719 103.148438 C 144.316406 103.148438 150.234375 109.066406 150.234375 116.371094 "/>
<path style="fill-rule:nonzero;fill:rgb(0%,0%,0%);fill-opacity:1;stroke-width:0.75;stroke-linecap:round;stroke-linejoin:round;stroke:rgb(0%,0%,0%);stroke-opacity:1;stroke-miterlimit:10;" d="M 140.085938 195.574219 C 140.085938 202.878906 134.164062 208.800781 126.859375 208.800781 C 119.554688 208.800781 113.636719 202.878906 113.636719 195.574219 C 113.636719 188.273438 119.554688 182.351562 126.859375 182.351562 C 134.164062 182.351562 140.085938 188.273438 140.085938 195.574219 "/>
<path style="fill-rule:nonzero;fill:rgb(0%,0%,0%);fill-opacity:1;stroke-width:0.75;stroke-linecap:round;stroke-linejoin:round;stroke:rgb(0%,0%,0%);stroke-opacity:1;stroke-miterlimit:10;" d="M 112.847656 138.042969 C 112.847656 145.34375 106.929688 151.265625 99.625 151.265625 C 92.320312 151.265625 86.398438 145.34375 86.398438 138.042969 C 86.398438 130.738281 92.320312 124.816406 99.625 124.816406 C 106.929688 124.816406 112.847656 130.738281 112.847656 138.042969 "/>
<path style="fill-rule:nonzero;fill:rgb(0%,0%,0%);fill-opacity:1;stroke-width:0.75;stroke-linecap:round;stroke-linejoin:round;stroke:rgb(0%,0%,0%);stroke-opacity:1;stroke-miterlimit:10;" d="M 153.136719 78.023438 C 153.136719 85.328125 147.214844 91.25 139.910156 91.25 C 132.609375 91.25 126.6875 85.328125 126.6875 78.023438 C 126.6875 70.722656 132.609375 64.800781 139.910156 64.800781 C 147.214844 64.800781 153.136719 70.722656 153.136719 78.023438 "/>
</g>
</svg>
